<svg width="512" height="512" viewBox="0 0 512 512" xmlns="http://www.w3.org/2000/svg">
  <defs>
    <linearGradient id="lidTop" x1="0" y1="0" x2="1" y2="1">
      <stop offset="0" stop-color="#FFE9A8"/>
      <stop offset="0.5" stop-color="#F7CB3E"/>
      <stop offset="1" stop-color="#E9A81C"/>
    </linearGradient>
    <linearGradient id="lidL" x1="0" y1="0" x2="0" y2="1">
      <stop offset="0" stop-color="#F3CB4B"/>
      <stop offset="1" stop-color="#D89A16"/>
    </linearGradient>
    <linearGradient id="lidR" x1="0" y1="0" x2="0" y2="1">
      <stop offset="0" stop-color="#E4AE28"/>
      <stop offset="1" stop-color="#B98110"/>
    </linearGradient>
    <linearGradient id="baseTop" x1="0" y1="0" x2="1" y2="1">
      <stop offset="0" stop-color="#7a4a2f"/>
      <stop offset="1" stop-color="#4a2620"/>
    </linearGradient>
    <linearGradient id="baseL" x1="0" y1="0" x2="0" y2="1">
      <stop offset="0" stop-color="#E8C063"/>
      <stop offset="1" stop-color="#9A6A1E"/>
    </linearGradient>
    <linearGradient id="baseR" x1="0" y1="0" x2="0" y2="1">
      <stop offset="0" stop-color="#7A4038"/>
      <stop offset="1" stop-color="#3C201D"/>
    </linearGradient>
  </defs>
  <polygon points="256,250 400,322 256,394 112,322" fill="url(#baseTop)"/>
  <polygon points="112,322 112,432 256,504 256,394" fill="url(#baseL)"/>
  <polygon points="400,322 400,432 256,504 256,394" fill="url(#baseR)"/>
  <polygon points="112,120 112,150 256,222 256,192" fill="url(#lidL)"/>
  <polygon points="400,120 400,150 256,222 256,192" fill="url(#lidR)"/>
  <polygon points="256,48 400,120 256,192 112,120" fill="url(#lidTop)"/>
  <polygon points="256,64 372,122 256,180 140,122" fill="#FFFFFF" opacity="0.12"/>
</svg>
